<?xml version="1.0" encoding="UTF-8"?>
<svg id="Color" xmlns="http://www.w3.org/2000/svg" viewBox="0 -20 205 405">
  <defs>
    <style>
      .cls-1 {
        fill: #e9841d;
      }

      .cls-2 {
        fill: #f68c1f;

      }
      .cls-4#handle {
          animation: openLock--handle 1s cubic-bezier(0,1.03,1,.27) forwards;
      }

      .cls-3 {
        fill: #fdbb45;
      }

      .cls-4 {
        fill: #c05f28;
      }

/* .lockContainer svg:hover {
    animation: idle 1s cubic-bezier(0.47, 0, 0.745, 0.715);
} */


@keyframes openLock--handle {
    0% {
        transform: translateY(0px);

    }
    100% {
        transform: translateY(-20px);

    }
}

    </style>
  </defs>

  <!-- Lock Body -->
  <path id="body" class="cls-4" d="M189.4,303.52c-.99,.17-2.01,.26-3.05,.26H18.3c-9.83,0-17.8-7.9-17.8-17.64V145.66c0-2.04,.35-4,1-5.83H189.39v163.69Z"/>
  <path id="body-depth--side" class="cls-1" d="M203.82,145.31v141.07c0,8.64-6.21,15.84-14.43,17.4V139.83l7.22-8.77c4.37,3.22,7.21,8.41,7.21,14.25Z"/>
  <path id="body-depth--corner" class="cls-2" d="M196.61,131.06l-7.22,8.77v-11.93c2.67,.51,5.12,1.6,7.22,3.16Z"/>
  <path id="body-depth--top" class="cls-2" d="M189.39,128.16v11.67H1.5c2.43-6.96,9.03-11.93,16.8-11.93H186.34c1.04,0,2.06,.09,3.05,.26Z"/>
    <!--Key Hole-->
  <path id="keyhole" class="cls-3" d="M117.27,193.85c.19,6.08-3.25,11.38-8.31,13.89v23.74c0,3.67-2.97,6.64-6.64,6.64-1.84,0-3.5-.74-4.7-1.94-1.2-1.2-1.94-2.86-1.94-4.7v-23.74c-4.93-2.45-8.32-7.54-8.32-13.42,0-8.5,7.09-15.35,15.68-14.94,7.7,.36,14,6.77,14.23,14.47Z"/>
  <!--handle-->
  <path id="handle-depth" class="cls-2" d="M140.32,139.83V62.96c0-10.98-3.69-21.29-10.4-29.02-6.6-7.61-15.34-11.8-24.6-11.8-19.3,0-35,18.31-35,40.82v76.87h-27.93V71.68C42.39,32.16,70.46,0,104.97,0h.72c34.5,0,62.57,32.16,62.57,71.68v68.15h-27.93Z"/>
  <path id="handle" class="cls-4" d="M162.25,74.68v65.15h-21.93V65.96c0-12.1-4.25-23.05-11.13-30.98s-16.37-12.83-26.87-12.83c-20.99,0-38,19.63-38,43.82v73.87h-21.93V74.68c0-37.93,26.67-68.68,59.57-68.68h.72c32.9,0,59.57,30.75,59.57,68.68Z"/>
</svg>